<svg xmlns="http://www.w3.org/2000/svg" width="1024" height="1024" viewBox="0 0 1024 1024" version="1.1"><path d="M 512.647 277.478 C 511.645 280.089, 512.216 339.175, 513.264 341.328 C 514.103 343.051, 515.839 343.131, 543.827 342.725 C 569.355 342.355, 574.478 342.022, 580.500 340.338 C 586.484 338.665, 587.552 338.027, 587.859 335.941 C 588.423 332.107, 586.856 281.384, 586.137 280.222 C 585.308 278.880, 562.349 277.135, 534.916 276.328 C 514.789 275.736, 513.285 275.814, 512.647 277.478 M 422.500 281.035 C 419.200 281.495, 412.675 282.391, 408 283.025 C 395.245 284.755, 377.639 287.819, 367.250 290.118 L 358 292.164 358 316.975 C 358 338.677, 358.198 341.862, 359.582 342.393 C 360.452 342.727, 378.002 343, 398.582 343 L 436 343 436 376 L 436 409 400.625 409 C 381.169 409, 363.837 409.283, 362.110 409.628 L 358.971 410.256 359.555 416.878 C 361.234 435.901, 367.202 458.161, 375.005 474.510 C 378.204 481.212, 384.205 491.788, 386.503 494.774 C 387.623 496.228, 391.138 491.743, 397.178 481.150 C 407.678 462.738, 413.861 453.955, 426.851 439 C 430.912 434.325, 434.632 429.458, 435.117 428.185 C 435.603 426.912, 436 422.074, 436 417.435 L 436 409 445.791 409 L 455.582 409 466.541 400.477 C 477.236 392.159, 497.704 378.132, 507.277 372.559 L 512.055 369.778 511.777 356.139 L 511.500 342.500 474.264 342.238 L 437.029 341.976 436.764 311.238 L 436.500 280.500 432.500 280.349 C 430.300 280.266, 425.800 280.575, 422.500 281.035" stroke="none" fill="#d13637" fill-rule="evenodd"/><path d="M 504.500 127.835 C 499.636 130.147, 496.601 133.318, 494.548 138.232 C 491.622 145.233, 493.061 151.166, 499.271 157.711 L 502.317 160.922 499.502 165.211 C 477.716 198.409, 447.651 207.481, 413.716 191.098 C 409.197 188.916, 404.619 186.421, 403.542 185.553 C 401.619 184.003, 401.617 183.918, 403.458 180.801 C 404.490 179.055, 405.333 175.744, 405.333 173.441 C 405.333 161.782, 391.352 153.919, 381.922 160.274 C 372.206 166.821, 371.312 178.036, 379.927 185.285 C 381.577 186.673, 383.404 187.968, 383.989 188.163 C 384.573 188.358, 385.941 192.563, 387.029 197.508 C 390.597 213.720, 392.022 220.394, 393.542 228 C 397.148 246.048, 397.300 246.473, 400.280 246.818 C 401.789 246.992, 405.381 246.472, 408.262 245.662 C 413.506 244.188, 434.843 240.510, 455.500 237.519 C 461.550 236.643, 477.011 235.191, 489.857 234.292 C 511.581 232.772, 514.936 232.775, 537.857 234.334 C 567.074 236.321, 602.351 241.451, 617.993 245.987 C 626.184 248.362, 626.291 248.261, 628.892 235.750 C 630.178 229.563, 632.032 221.125, 633.011 217 C 633.990 212.875, 635.811 204.879, 637.058 199.231 C 639.161 189.704, 639.565 188.814, 642.645 186.911 C 653.211 180.380, 653.134 166.220, 642.500 160.271 C 628.756 152.582, 613.823 166.422, 620.895 180.295 L 622.791 184.013 620.145 185.876 C 612.240 191.443, 599.053 196.360, 587.709 197.970 C 573.002 200.058, 558.210 196.845, 546.833 189.091 C 539.722 184.245, 522 164.726, 522 161.741 C 522 161.192, 523.549 159.028, 525.441 156.933 C 531.918 149.765, 532.350 142.226, 526.757 133.996 C 522.184 127.266, 511.765 124.382, 504.500 127.835 M 461.743 252.539 C 420.103 255.040, 375.110 261.692, 339.322 270.639 C 335.572 271.576, 332.882 272.835, 332.479 273.842 C 331.302 276.779, 330.978 364.583, 332.037 393.801 C 333.491 433.937, 337.020 453.192, 347.835 480 C 367.830 529.562, 414.452 570.046, 489.500 603.013 C 496.100 605.913, 501.950 608.599, 502.500 608.984 C 503.050 609.369, 505.391 610.417, 507.702 611.314 C 512.777 613.284, 513.144 613.176, 534 603.540 C 574.182 584.977, 597.693 571.324, 618.500 554.469 C 658.126 522.370, 679.078 487.681, 688.038 439.337 C 691.697 419.597, 692.968 391.814, 692.985 331.250 C 692.999 276.952, 692.933 274.933, 691.065 273.065 C 689.153 271.153, 683.179 269.016, 679.714 269.006 C 678.731 269.003, 674.231 268.128, 669.714 267.063 C 652.334 262.963, 632.685 259.814, 597.500 255.490 C 564.433 251.426, 502.641 250.083, 461.743 252.539 M 486.500 276.742 C 482.650 276.935, 470.050 277.742, 458.500 278.535 C 446.950 279.329, 436.375 279.969, 435 279.958 C 426.805 279.894, 385.286 286.118, 367.250 290.114 L 358 292.164 358 317.082 C 358 330.787, 358.337 342, 358.750 342 C 359.163 341.999, 359.376 357.041, 359.224 375.427 L 358.948 408.854 361.224 409.291 L 363.500 409.728 361.222 409.864 C 359.027 409.995, 358.966 410.244, 359.542 416.750 C 361.231 435.831, 367.182 458.120, 374.909 474.310 C 380.533 486.093, 386.245 495.087, 387.750 494.528 C 388.440 494.271, 389.012 494.832, 389.028 495.781 C 389.056 497.521, 394.708 505.699, 395.581 505.264 C 395.841 505.134, 399.034 499.059, 402.675 491.764 C 424.605 447.831, 455.761 413.537, 501.150 383.371 C 547.265 352.722, 607.039 331.197, 653.772 328.412 L 665.044 327.740 664.772 309.670 L 664.500 291.600 658 290.356 C 632.235 285.423, 590.916 279.527, 587.807 280.340 C 586.866 280.586, 585.962 280.423, 585.798 279.976 C 585.391 278.867, 560.960 277.105, 535.159 276.324 C 517.365 275.785, 513.669 275.912, 512.924 277.089 C 512.293 278.086, 512.026 278.134, 512.015 277.250 C 512 275.997, 504.397 275.846, 486.500 276.742 M 611.890 354.453 C 591.072 362.086, 583.869 365.642, 567.906 376.168 C 555.621 384.268, 554.093 385.564, 556.144 386.139 C 562.057 387.799, 564.049 387.061, 576.319 378.665 C 590.563 368.917, 602.062 362.300, 618 354.676 C 624.325 351.651, 628.825 349.158, 628 349.136 C 627.175 349.115, 619.926 351.507, 611.890 354.453 M 652.500 360.338 C 612.027 381.395, 580.026 416.774, 567.595 454.205 C 564.024 464.960, 561 482.912, 561 493.365 C 561 506.781, 564.466 524.326, 570.415 541.017 C 574.201 551.641, 574.089 551.518, 578.117 549.459 C 596.013 540.310, 624.130 514.914, 636.021 497.159 C 641.779 488.560, 650.804 470.578, 653.917 461.500 C 661.530 439.301, 664.076 421.719, 664.703 387 C 664.986 371.325, 665.057 357.509, 664.859 356.297 C 664.517 354.200, 663.925 354.393, 652.500 360.338 M 539 398.713 C 532.765 401.019, 500 434.101, 500 438.090 C 500 438.590, 503.526 439, 507.836 439 L 515.671 439 523.323 429.039 C 527.531 423.560, 535.255 414.618, 540.487 409.167 C 545.719 403.715, 550 398.973, 550 398.628 C 550 397.866, 541.102 397.935, 539 398.713 M 487.014 456.986 C 484.080 459.920, 472.864 482.869, 468.191 495.500 C 460.984 514.980, 455.886 535.364, 455.650 545.648 L 455.500 552.151 466.877 559.076 C 473.134 562.884, 478.602 566, 479.028 566 C 479.454 566, 480.093 560.712, 480.447 554.250 C 481.429 536.335, 486.367 506.640, 490.716 492.500 C 493.223 484.349, 498.917 470.115, 502.581 462.839 C 504.461 459.105, 506 455.814, 506 455.525 C 506 455.236, 502.175 455, 497.500 455 C 490.354 455, 488.684 455.316, 487.014 456.986 M 255.174 641.049 C 243.241 643.192, 227.839 651.685, 220.333 660.262 C 215.689 665.568, 210.627 674.642, 207.897 682.552 C 205.769 688.719, 205.500 691.242, 205.500 705 C 205.500 718.272, 205.816 721.462, 207.699 727.189 C 212.123 740.650, 218.448 750.155, 227.722 757.278 C 239.652 766.442, 249.530 769.905, 266.007 770.700 C 275.820 771.173, 278.665 770.939, 285.330 769.110 C 302.330 764.446, 312.673 756.509, 320.945 741.779 C 322.712 738.633, 324.010 735.307, 323.829 734.388 C 323.634 733.398, 321.668 732.166, 319 731.363 C 312.731 729.476, 298.126 726, 296.468 726 C 295.712 726, 294.231 727.913, 293.177 730.250 C 289.211 739.044, 281.837 743, 269.412 743 C 255.983 743, 245.920 736.856, 240.951 725.623 C 236.645 715.887, 236.868 695.337, 241.387 685.466 C 247.825 671.404, 265.170 664.274, 280.124 669.541 C 285.213 671.334, 292.559 678.107, 293.506 681.879 C 294.680 686.558, 295.526 686.929, 301.791 685.515 C 304.931 684.806, 310.988 683.470, 315.250 682.545 L 323 680.864 323 677.434 C 323 671.999, 317.300 661.149, 311.418 655.392 C 301.077 645.267, 290.181 641.097, 272.500 640.499 C 265.900 640.275, 258.103 640.523, 255.174 641.049 M 487 640.958 C 462.755 644.634, 448.172 662.822, 451.948 684.676 C 453.374 692.931, 456.586 698.730, 462.256 703.286 C 470.204 709.673, 476.816 712.408, 496.255 717.348 C 512.562 721.492, 517.156 723.702, 519.432 728.497 C 521.533 732.924, 520.822 736.905, 517.303 740.425 C 513.777 743.951, 507.967 745.298, 498.500 744.785 C 487.022 744.163, 481.466 740.796, 477.535 732.077 L 475.591 727.766 469.545 728.418 C 463.249 729.098, 448.282 732.384, 447.382 733.285 C 446.698 733.969, 449.362 742.850, 451.533 747.122 C 458.863 761.550, 474.106 769.630, 496 770.693 C 521.661 771.940, 540.350 763.530, 548.126 747.236 C 550.931 741.359, 551.217 739.849, 551.217 730.951 C 551.217 722.286, 550.898 720.490, 548.472 715.533 C 542.733 703.803, 531.300 697.403, 504.500 690.920 C 497.350 689.190, 490.374 687.197, 488.998 686.490 C 481.062 682.414, 480.014 672.659, 487.067 668.518 C 489.774 666.929, 492.193 666.518, 498.500 666.574 C 502.900 666.613, 508.113 667.185, 510.085 667.846 C 514.199 669.223, 518.400 673.247, 519.917 677.265 C 521.124 680.459, 521.610 680.441, 538 676.582 L 547.500 674.345 547.308 670.146 C 546.847 660.056, 536.859 649.449, 522.607 643.915 C 516.390 641.501, 513.251 640.942, 503.821 640.570 C 497.595 640.325, 490.025 640.499, 487 640.958 M 343.976 643.739 C 343.499 658.963, 343.833 766.922, 344.361 767.775 C 344.939 768.710, 354.910 769, 386.477 769 C 409.225 769, 428.548 768.727, 429.418 768.393 C 430.752 767.881, 431 765.683, 431 754.393 L 431 741 403.062 741 L 375.125 741 374.812 730.015 L 374.500 719.030 399 718.765 L 423.500 718.500 423.500 705.500 L 423.500 692.500 399.314 692.232 L 375.128 691.965 374.814 681.491 C 374.556 672.901, 374.770 670.914, 376 670.444 C 376.825 670.129, 388.980 670.188, 403.011 670.576 C 425.277 671.192, 428.683 671.087, 429.792 669.750 C 430.706 668.650, 430.984 664.743, 430.782 655.859 L 430.500 643.500 387.250 643.239 C 363.462 643.096, 343.989 643.321, 343.976 643.739 M 607.253 644.228 C 606.687 644.927, 603.198 653.600, 599.499 663.500 C 595.800 673.400, 590.766 686.675, 588.312 693 C 581.106 711.576, 569.695 741.171, 566.334 750 C 564.973 753.575, 562.911 758.857, 561.751 761.738 C 560.591 764.618, 559.878 767.211, 560.166 767.499 C 560.454 767.788, 568.038 768.121, 577.019 768.241 C 590.668 768.423, 593.432 768.216, 593.863 766.979 C 594.147 766.166, 595.981 760.775, 597.940 755 L 601.500 744.500 625.751 744.469 L 650.002 744.437 651.445 748.469 C 652.239 750.686, 654.015 755.875, 655.391 760 L 657.894 767.500 674.947 767.774 C 684.326 767.924, 692 767.767, 692 767.424 C 692 767.081, 690.022 761.783, 687.604 755.650 C 685.186 749.518, 682.079 741.575, 680.699 738 C 679.320 734.425, 675.638 724.975, 672.518 717 C 669.399 709.025, 665.717 699.575, 664.338 696 C 662.958 692.425, 659.880 684.550, 657.498 678.500 C 655.116 672.450, 651.553 663.225, 649.580 658 C 647.608 652.775, 645.416 647.375, 644.710 646 L 643.425 643.500 625.854 643.228 C 612.567 643.021, 608.031 643.265, 607.253 644.228 M 708.667 643.667 C 708.300 644.033, 708 672.158, 708 706.167 L 708 768 711.250 768.118 C 726.364 768.668, 735.778 768.750, 737.250 768.346 C 738.847 767.907, 739 765.993, 739 746.392 L 739 724.919 747.150 725.210 L 755.301 725.500 765.400 745.048 C 770.955 755.799, 776.032 765.474, 776.682 766.548 C 777.794 768.383, 778.873 768.479, 794.682 768.156 C 803.932 767.968, 811.717 767.601, 811.981 767.342 C 812.246 767.083, 811.613 765.437, 810.575 763.685 C 809.537 761.933, 806.902 757.350, 804.718 753.500 C 798.976 743.376, 798.992 743.403, 792.728 732.849 C 789.578 727.541, 787 722.786, 787 722.283 C 787 721.780, 788.831 720.339, 791.070 719.081 C 802.412 712.706, 809 700.033, 809 684.587 C 809 662.188, 797.650 648.707, 775.170 644.405 C 767.500 642.938, 710.034 642.300, 708.667 643.667 M 739.981 668.833 C 739.394 669.033, 739 675.606, 739 685.181 L 739 701.196 752.250 700.819 C 767.652 700.380, 772.508 698.664, 775.362 692.649 C 778.952 685.084, 776.434 674.108, 770.399 671.013 C 767.760 669.660, 742.810 667.872, 739.981 668.833 M 622.965 681.738 C 618.075 694.616, 611 715.206, 611 716.558 C 611 717.750, 613.600 718, 626 718 C 635.940 718, 641 717.641, 641 716.935 C 641 716.350, 640.135 713.762, 639.078 711.185 C 635.582 702.666, 632.235 693.610, 629.489 685.241 C 627.999 680.699, 626.414 676.756, 625.966 676.479 C 625.519 676.203, 624.168 678.569, 622.965 681.738 M 503.764 805.996 C 495.749 808.409, 490.052 815.259, 490.038 822.500 C 490.024 830.145, 497.303 836.866, 508 839.087 C 517.116 840.979, 521.892 844.513, 520.441 848.292 C 519.725 850.159, 515.629 852.001, 512.203 851.996 C 508.812 851.992, 503 848.530, 503 846.515 C 503 844.860, 499.356 844.550, 492.750 845.642 C 489.872 846.117, 489 846.727, 489 848.263 C 489 851.633, 493.075 857.092, 497.852 860.121 C 502.019 862.764, 503.159 863, 511.736 863 C 522.780 863, 527.584 861.107, 531.455 855.230 C 535.163 849.601, 535.593 844.437, 532.807 839 C 530.016 833.555, 525.411 830.791, 514.473 827.993 C 505.629 825.731, 504 824.706, 504 821.403 C 504 819.781, 504.969 818.551, 507.121 817.437 C 511.447 815.200, 516.281 816.266, 519.298 820.122 C 521.517 822.957, 521.997 823.123, 526.176 822.496 C 532.823 821.500, 533.450 820.894, 532.094 816.784 C 529.118 807.769, 515.323 802.515, 503.764 805.996 M 631.324 806.379 C 615.631 811.512, 608.302 825.323, 612.036 842.731 C 613.422 849.193, 619.289 856.799, 625.533 860.227 C 629.891 862.619, 631.605 862.956, 639.515 862.977 C 646.776 862.995, 649.305 862.591, 652.515 860.898 C 657.844 858.086, 661.625 854.436, 664.839 849 C 667.243 844.934, 667.500 843.536, 667.498 834.500 C 667.496 825.404, 667.250 824.090, 664.781 819.969 C 663.288 817.477, 660.814 814.239, 659.283 812.773 C 652.857 806.618, 639.755 803.622, 631.324 806.379 M 229.416 807.358 C 229.121 808.126, 229.020 810.947, 229.190 813.627 L 229.500 818.500 237.231 818.792 L 244.961 819.083 245.231 840.792 L 245.500 862.500 252 862.500 L 258.500 862.500 258.769 840.792 L 259.039 819.083 266.769 818.792 L 274.500 818.500 274.500 812.500 L 274.500 806.500 252.226 806.231 C 233.904 806.009, 229.857 806.209, 229.416 807.358 M 290.488 807.171 C 290.201 807.918, 290.086 820.673, 290.233 835.515 L 290.500 862.500 297 862.500 L 303.500 862.500 303.786 852.750 L 304.072 843 307.013 843 C 310.292 843, 310.699 843.497, 316.827 855 L 320.823 862.500 327.563 862.799 C 331.269 862.964, 334.683 862.717, 335.150 862.250 C 335.616 861.784, 333.268 856.970, 329.931 851.552 C 323.635 841.330, 323.665 841.556, 328.247 838.933 C 331.418 837.118, 334 830.500, 334 824.188 C 334 816.656, 331.356 812.430, 324.499 809 C 320.005 806.753, 318.060 806.465, 305.255 806.156 C 293.934 805.883, 290.902 806.092, 290.488 807.171 M 372.235 807.705 C 371.081 808.692, 367.590 816.025, 364.477 824 C 361.364 831.975, 356.806 843.562, 354.348 849.748 C 351.890 855.934, 350.158 861.447, 350.499 861.998 C 350.839 862.549, 353.736 863, 356.937 863 C 363.546 863, 364.550 862.239, 366.457 855.782 L 367.721 851.500 378.049 851.500 L 388.377 851.500 390.583 857 L 392.790 862.500 399.043 862.802 C 402.483 862.967, 405.724 862.676, 406.246 862.154 C 407.061 861.339, 398.187 837.489, 387.585 812 L 385.297 806.500 379.815 806.205 C 375.678 805.983, 373.818 806.351, 372.235 807.705 M 422.472 807.212 C 422.194 807.937, 422.086 820.673, 422.233 835.515 L 422.500 862.500 429 862.500 L 435.500 862.500 436 847.333 L 436.500 832.165 448.007 847.333 L 459.514 862.500 465.507 862.500 L 471.500 862.500 471.612 837 C 471.673 822.975, 471.525 810.263, 471.282 808.750 C 470.859 806.113, 470.600 806, 464.980 806 C 461.393 806, 458.820 806.481, 458.351 807.241 C 457.930 807.923, 457.713 815.233, 457.870 823.485 C 458.028 831.738, 457.848 838.181, 457.470 837.804 C 457.093 837.427, 451.520 830.229, 445.085 821.809 L 433.386 806.500 428.182 806.197 C 424.571 805.987, 422.823 806.298, 422.472 807.212 M 553.708 806.663 C 553.408 807.149, 553.045 819.911, 552.903 835.023 L 552.643 862.500 559.072 862.500 L 565.500 862.500 565.787 853.890 L 566.074 845.281 574.024 844.736 C 583.630 844.077, 589.514 841.486, 592.960 836.396 C 594.996 833.389, 595.427 831.520, 595.460 825.559 C 595.494 819.488, 595.107 817.776, 593 814.663 C 588.710 808.326, 583.643 806.612, 567.877 806.166 C 560.384 805.954, 554.008 806.178, 553.708 806.663 M 686.488 808.250 C 686.185 809.487, 686.064 822.200, 686.219 836.500 L 686.500 862.500 693 862.500 L 699.500 862.500 699.786 852.750 L 700.072 843 703.471 843 C 706.760 843, 707.037 843.321, 712.098 853 L 717.328 863 724.664 863 C 729.388 863, 732 862.603, 732 861.886 C 732 860.685, 723.607 846.639, 721.153 843.734 C 719.817 842.152, 719.861 841.817, 721.581 840.516 C 722.636 839.717, 723.832 839.049, 724.237 839.032 C 725.579 838.974, 729.849 831.322, 730.512 827.790 C 731.432 822.884, 729.564 816.962, 725.759 812.725 C 721.179 807.624, 714.799 806, 699.338 806 C 687.412 806, 687.021 806.068, 686.488 808.250 M 745.416 807.358 C 745.121 808.126, 745.020 810.947, 745.190 813.627 L 745.500 818.500 753.231 818.792 L 760.961 819.083 761.231 840.792 L 761.500 862.500 768.325 862.500 L 775.150 862.500 775.040 840.793 L 774.930 819.085 782.715 818.793 L 790.500 818.500 790.500 812.500 L 790.500 806.500 768.226 806.231 C 749.904 806.009, 745.857 806.209, 745.416 807.358 M 304 825 L 304 832 309.865 832 C 319.791 832, 324.211 826.120, 318.545 820.455 C 316.481 818.390, 315.131 818, 310.045 818 L 304 818 304 825 M 566 825.500 L 566 833 571.777 833 C 579.628 833, 582 831.259, 582 825.500 C 582 819.741, 579.628 818, 571.777 818 L 566 818 566 825.500 M 634.619 818.985 C 626.019 821.708, 622.557 834.312, 627.667 844.294 C 632.337 853.418, 647.265 852.907, 651.979 843.463 C 654.061 839.292, 653.882 827.996, 651.681 824.636 C 648.217 819.349, 641.009 816.962, 634.619 818.985 M 700 825 L 700 832 705.944 832 C 710.722 832, 712.418 831.544, 714.589 829.677 C 716.936 827.658, 717.199 826.876, 716.602 823.689 C 715.739 819.091, 713.719 818, 706.066 818 L 700 818 700 825 M 376.558 826.586 C 375.604 829.289, 374.189 832.978, 373.412 834.784 C 372.636 836.590, 372 838.278, 372 838.534 C 372 838.790, 374.700 839, 378 839 C 384.665 839, 385.047 838.481, 382.574 832.784 C 381.790 830.978, 380.506 827.739, 379.720 825.586 L 378.291 821.671 376.558 826.586" stroke="none" fill="#0c2941" fill-rule="evenodd"/></svg>